<svg width="400" height="319" viewBox="0 0 400 319" fill="none" xmlns="http://www.w3.org/2000/svg">
<path d="M58.5057 142.217C54.776 144.887 50.7798 145.956 46.5173 145.422C42.2547 144.887 38.7914 142.751 36.1273 139.012C33.4633 135.273 32.4669 131.267 33.1382 126.994C33.8096 122.72 35.8716 119.248 39.3242 116.578L182.785 6.40977C185.716 4.27318 188.849 2.67074 192.184 1.60244C195.52 0.534146 198.914 0 202.366 0C205.819 0 209.218 0.534146 212.565 1.60244C215.911 2.67074 219.038 4.27318 221.947 6.40977L266.305 40.4617V31.6482C266.305 24.9714 268.638 19.2987 273.306 14.6303C277.973 9.96185 283.632 7.62228 290.281 7.6116C296.931 7.60091 302.595 9.94048 307.273 14.6303C311.951 19.3201 314.279 24.9928 314.258 31.6482V77.3178L365.808 116.578C369.271 119.248 371.27 122.72 371.802 126.994C372.335 131.267 371.27 135.273 368.605 139.012C365.941 142.751 362.478 144.887 358.215 145.422C353.953 145.956 349.957 144.887 346.227 142.217L274.297 87.1328L202.366 32.0488L58.5057 142.217Z" fill="#446AB3"/>
<path d="M51.375 163.592V318.241H347.767V162.114L200.552 50.0381L51.375 163.592Z" fill="#F9F7F2"/>
<mask id="mask0_785_818" style="mask-type:luminance" maskUnits="userSpaceOnUse" x="0" y="1" width="400" height="265">
<path d="M400 243.712H231.25C227.226 243.738 223.345 245.226 220.312 247.906L200 265.87L179.688 247.906C176.655 245.226 172.774 243.738 168.75 243.712H0V1.55664H400V243.712Z" fill="white"/>
</mask>
<g mask="url(#mask0_785_818)">
<g clip-path="url(#clip0_785_818)">
<path d="M295.311 209.806C268.674 217.233 240.215 213.641 216.191 199.821C192.167 186.002 174.543 163.085 167.193 136.108C164.976 127.522 163.861 118.683 163.875 109.808C139.914 119.04 120.168 136.919 108.434 160.006C96.6994 183.093 93.8049 209.76 100.307 234.878C115.088 290.756 172.356 323.795 228.35 308.597C275.514 295.796 306.449 252.827 306.242 206.184C302.642 207.601 298.967 208.817 295.236 209.827L295.311 209.806Z" fill="url(#paint0_linear_785_818)" stroke="#72B9D5" stroke-width="0.1875" stroke-linecap="round" stroke-linejoin="round"/>
</g>
</g>
<path d="M100.935 266H170.716L202.435 294L234.153 266H303.935" stroke="#77BBD6" stroke-width="3" stroke-linecap="round" stroke-linejoin="round"/>
<defs>
<linearGradient id="paint0_linear_785_818" x1="117.667" y1="143.651" x2="266.371" y2="290.406" gradientUnits="userSpaceOnUse">
<stop stop-color="#86C3DB"/>
<stop offset="0.5" stop-color="#86C3DB"/>
<stop offset="1" stop-color="#5EAFCF"/>
</linearGradient>
<clipPath id="clip0_785_818">
<rect width="210.938" height="213.667" fill="white" transform="translate(94.5312 101.314)"/>
</clipPath>
</defs>
</svg>
