<svg width="400" height="295" viewBox="0 0 400 295" fill="none" xmlns="http://www.w3.org/2000/svg">
<mask id="mask0_523_1501" style="mask-type:luminance" maskUnits="userSpaceOnUse" x="0" y="0" width="400" height="261">
<path d="M400 239.062H231.25C227.226 239.088 223.345 240.557 220.312 243.203L200 260.937L179.688 243.203C176.655 240.557 172.774 239.088 168.75 239.062H0V0H400V239.062Z" fill="white"/>
</mask>
<g mask="url(#mask0_523_1501)">
<g clip-path="url(#clip0_523_1501)">
<path d="M295.311 205.589C268.674 212.92 240.215 209.374 216.191 195.731C192.167 182.088 174.543 159.464 167.193 132.832C164.976 124.356 163.861 115.629 163.875 106.868C139.914 115.982 120.168 133.632 108.434 156.425C96.6994 179.217 93.8049 205.543 100.307 230.34C115.088 285.504 172.356 318.121 228.35 303.118C275.514 290.48 306.448 248.06 306.242 202.013C302.642 203.411 298.967 204.612 295.236 205.609L295.311 205.589Z" fill="url(#paint0_linear_523_1501)"/>
<path d="M163.774 106.601C163.861 106.568 163.96 106.582 164.037 106.635C164.114 106.688 164.161 106.775 164.161 106.868C164.147 115.605 165.258 124.307 167.468 132.759C174.798 159.317 192.373 181.88 216.331 195.486C240.274 209.083 268.633 212.617 295.182 205.325C298.897 204.332 302.557 203.141 306.142 201.748C306.228 201.715 306.327 201.727 306.404 201.779C306.481 201.832 306.527 201.919 306.528 202.013C306.734 248.186 275.715 290.721 228.425 303.392C172.283 318.435 114.856 285.731 100.033 230.413L99.4504 228.078C93.7037 203.902 96.7823 178.436 108.181 156.295C119.948 133.44 139.748 115.74 163.774 106.601ZM295.387 205.862L295.31 205.882L295.306 205.88C268.619 213.203 240.118 209.644 216.052 195.977C191.963 182.297 174.29 159.613 166.92 132.909L166.918 132.903L166.515 131.308C164.594 123.445 163.612 115.381 163.592 107.284C139.871 116.415 120.325 133.947 108.686 156.555C96.9837 179.285 94.0983 205.539 100.583 230.269C115.323 285.276 172.433 317.807 228.278 302.843C275.176 290.277 305.976 248.185 305.955 202.423C302.495 203.752 298.969 204.898 295.389 205.858L295.387 205.862Z" fill="#72B9D5"/>
</g>
<path d="M57.8016 145.885C54.1168 148.524 50.1687 149.579 45.9574 149.051C41.7462 148.524 38.3245 146.413 35.6925 142.719C33.0604 139.025 32.076 135.067 32.7393 130.845C33.4026 126.623 35.4398 123.193 38.8509 120.554L180.587 11.7116C183.482 9.60069 186.577 8.01752 189.872 6.96207C193.168 5.90663 196.521 5.37891 199.932 5.37891C203.343 5.37891 206.702 5.90663 210.008 6.96207C213.313 8.01752 216.403 9.60069 219.278 11.7116L263.101 45.3539V36.6465C263.101 30.0499 265.407 24.4455 270.018 19.8332C274.63 15.2209 280.22 12.9095 286.79 12.899C293.359 12.8884 298.955 15.1998 303.577 19.8332C308.199 24.4666 310.499 30.0711 310.478 36.6465V81.7668L361.408 120.554C364.83 123.193 366.804 126.623 367.33 130.845C367.857 135.067 366.804 139.025 364.172 142.719C361.54 146.413 358.118 148.524 353.907 149.051C349.695 149.579 345.747 148.524 342.063 145.885L270.997 91.4637L199.932 37.0423L57.8016 145.885Z" fill="#446AB3"/>
</g>
<path d="M168.942 254.546L169.493 254.57C170.771 254.686 171.983 255.209 172.952 256.064L200.278 280.185L227.604 256.064C228.712 255.086 230.14 254.546 231.617 254.546H300.559C303.906 254.546 306.62 257.26 306.62 260.607C306.62 263.953 303.906 266.667 300.559 266.667H233.907L204.291 292.812C202 294.835 198.56 294.835 196.268 292.812L166.652 266.667H100C96.6529 266.667 93.9395 263.954 93.9395 260.607C93.9395 257.259 96.6529 254.546 100 254.546H168.942Z" fill="#77BBD6"/>
<defs>
<linearGradient id="paint0_linear_523_1501" x1="117.667" y1="140.279" x2="264.484" y2="287.046" gradientUnits="userSpaceOnUse">
<stop stop-color="#86C3DB"/>
<stop offset="0.5" stop-color="#86C3DB"/>
<stop offset="1" stop-color="#5EAFCF"/>
</linearGradient>
<clipPath id="clip0_523_1501">
<rect width="210.937" height="210.937" fill="white" transform="translate(94.5312 98.4834)"/>
</clipPath>
</defs>
</svg>
