<svg width="400" height="325" viewBox="0 0 400 325" fill="none" xmlns="http://www.w3.org/2000/svg">
<path d="M58.1274 11.6986H108.597L108.18 33.3653L58.1274 66.1076V11.6986ZM199.234 0.484558L0 128.131L21.0233 145.298L200.07 30.5272L379.046 145.298L400 128.131L200.835 0.484558L200 0L199.234 0.484558Z" fill="#2E3192"/>
<path d="M53.1152 191.539C46.0842 190.985 44.4831 184.34 45.3881 174.095C46.0842 165.026 48.1726 160.804 57.1528 161.704C61.5384 162.05 66.8291 162.396 72.607 162.604L72.3982 155.404C72.3982 147.513 77.4799 147.167 88.7574 147.167C100.731 147.167 104.56 148.551 103.515 157.481L102.959 162.396L107.901 162.05C120.223 160.804 128.437 162.396 131.639 173.056C135.19 185.309 131.082 198.184 118.622 212.029C125.096 214.797 132.475 217.289 136.721 218.12C145.701 220.058 147.442 222.827 145.144 233.141C142.708 244.494 139.854 247.609 132.684 246.225C123.355 244.286 109.154 239.025 102.123 235.218C99.4779 233.834 97.0414 232.242 95.4403 229.957C83.4667 237.295 69.0567 244.079 55.8997 247.263C47.9638 249.201 45.04 246.017 41.8378 234.872C39.0532 225.112 39.8886 221.235 48.6599 218.605C69.0567 212.652 93.6303 198.53 99.269 192.023C99.8259 191.331 100.174 190.431 98.5729 190.639C87.1562 192.369 68.1517 192.577 53.0456 191.539H53.1152ZM124.26 281.32C104.072 281.32 95.301 283.397 95.301 288.52C95.301 292.742 99.6867 295.996 126.07 295.996C152.454 295.996 158.023 293.019 158.023 288.658C158.023 284.989 154.542 283.051 148.347 282.359C141.107 281.459 140.411 275.713 141.107 266.299C141.803 257.369 143.752 255.085 154.264 255.431C173.268 256.123 192.412 265.053 192.412 288.104C192.412 313.44 173.964 325 126.001 325C78.0369 325 60.8423 311.363 60.8423 288.104C60.8423 264.845 81.7264 252.662 124.469 253.493C134.633 253.701 138.183 257.369 137.835 268.376C137.278 279.382 133.589 281.32 124.33 281.32H124.26ZM172.851 244.217C164.079 244.217 157.953 244.079 157.466 233.488C157.118 226.219 156.979 217.151 156.979 207.598H146.537C138.949 207.598 137.278 202.476 137.278 193.754C137.278 185.032 138.949 179.909 146.537 179.909H156.979L157.466 159.973C157.953 149.451 164.079 147.582 172.851 147.582C181.622 147.582 188.792 148.898 188.305 159.419C187.47 179.217 187.47 212.859 188.305 232.588C188.792 243.11 181.692 244.148 172.851 244.148V244.217Z" fill="#62C5BA"/>
<path d="M311.938 193.823H317.159C317.159 204.552 317.507 215.143 317.855 224.35C318.343 235.08 324.608 235.287 335.259 235.287C344.169 235.287 349.738 234.249 349.251 223.519C348.416 203.376 348.207 177.556 349.251 157.412C349.738 146.682 344.169 145.298 335.259 145.298C323.772 145.298 318.412 147.167 317.855 157.896L317.507 166.134H311.938C304.141 166.134 302.471 171.533 302.471 180.394C302.471 189.254 304.141 193.823 311.938 193.823Z" fill="#1F68B2"/>
<path d="M238.636 234.318C238.636 241.586 242.117 241.863 252.559 241.863C263.001 241.863 266.481 241.725 266.481 234.318V233.972C279.43 234.11 292.935 234.11 299.061 232.726C303.794 231.618 305.883 229.126 304.908 221.235C303.794 211.613 299.339 210.713 293.352 211.336C284.163 212.305 267.247 212.305 251.723 211.82C236.826 211.336 218.657 211.82 206.823 214.036C201.253 215.143 199.235 218.743 200.209 226.634C201.323 235.91 206.683 236.533 212.392 235.633C219.492 234.387 228.542 233.764 238.636 233.556V234.318Z" fill="#1F68B2"/>
<path d="M273.86 149.798C267.943 148.552 259.729 147.79 248.312 147.652C219.492 147.236 204.595 156.72 204.595 175.756C204.595 194.792 217.612 205.799 251.166 205.799C284.72 205.799 298.573 195.831 298.573 175.756C298.573 159.212 285.138 151.528 273.86 149.798Z" fill="#1F68B2"/>
<path d="M351.689 302.641C349.391 293.573 344.31 294.265 336.026 295.65C326.21 297.38 287.505 298.972 259.451 298.28C252.28 298.072 252.072 296.688 252.628 292.881V292.534C279.012 293.78 312.009 293.088 334.842 290.112C346.259 288.381 348.208 283.466 346.12 276.683C345.772 275.09 345.075 273.914 344.17 273.014C348.069 249.409 337.139 243.663 312.009 246.086C294.954 247.678 252.768 247.124 234.181 245.878C225.41 245.186 222.555 247.124 221.163 255.154C219.91 262.7 221.511 265.953 229.934 266.853C243.788 268.237 290.568 269.137 304.282 268.237C310.617 267.891 313.053 268.237 312.357 273.152C288.967 275.229 255.622 274.537 234.529 272.806C221.511 271.906 220.467 273.498 219.214 279.105C218.309 283.328 217.961 286.443 220.606 288.52L219.701 293.919C217.404 307.556 221.302 316.832 238.149 318.562C258.546 320.639 331.083 319.808 344.936 316.486C353.22 314.755 353.359 309.84 351.619 302.71L351.689 302.641Z" fill="#1F68B2"/>
<path d="M258.894 160.666C259.59 163.296 259.659 166.135 258.894 169.111C257.153 175.964 251.236 181.364 243.927 182.61C239.959 183.302 236.199 182.748 232.928 181.433C232.162 181.087 231.466 181.917 231.814 182.61C235.434 188.909 242.813 192.924 251.097 191.885C259.52 190.847 266.342 184.271 267.317 176.241C268.152 169.596 265.159 163.573 260.147 159.835C259.52 159.351 258.545 159.905 258.754 160.666H258.894Z" fill="#FCD53F"/>
<path d="M264.95 169.595C264.95 169.595 264.95 170.149 264.81 170.357C264.671 170.634 264.532 170.841 264.323 170.98C264.114 171.187 263.905 171.326 263.627 171.395C263.348 171.464 263.07 171.533 262.791 171.533C262.513 171.533 262.235 171.533 261.956 171.395C261.678 171.326 261.469 171.118 261.26 170.98C261.051 170.772 260.912 170.564 260.773 170.357C260.633 170.08 260.633 169.872 260.633 169.595C260.633 169.041 260.842 168.557 261.26 168.142C261.678 167.795 262.235 167.519 262.791 167.519C263.348 167.519 263.905 167.726 264.323 168.142C264.741 168.488 264.95 169.041 264.95 169.595ZM247.407 186.139C247.407 186.139 247.407 186.693 247.268 186.901C247.128 187.178 246.989 187.385 246.78 187.524C246.572 187.732 246.363 187.87 246.084 187.939C245.806 188.008 245.527 188.078 245.249 188.078C244.97 188.078 244.692 188.078 244.413 187.939C244.135 187.87 243.926 187.662 243.717 187.524C243.509 187.316 243.369 187.109 243.23 186.901C243.091 186.624 243.091 186.416 243.091 186.139C243.091 185.586 243.3 185.101 243.717 184.686C244.135 184.34 244.692 184.063 245.249 184.063C245.806 184.063 246.363 184.27 246.78 184.686C247.198 185.032 247.407 185.586 247.407 186.139ZM263.488 177.833C263.836 177.833 264.184 177.694 264.462 177.487C264.741 177.279 264.88 176.933 264.88 176.587C264.88 176.241 264.741 175.894 264.462 175.687C264.184 175.479 263.836 175.341 263.488 175.341C263.14 175.341 262.791 175.479 262.513 175.687C262.235 175.894 262.095 176.241 262.095 176.587C262.095 176.933 262.235 177.279 262.513 177.487C262.791 177.694 263.14 177.833 263.488 177.833ZM260.773 181.709C260.773 182.194 260.633 182.748 260.494 183.163C260.285 183.647 260.007 184.063 259.589 184.409C259.241 184.755 258.754 185.032 258.267 185.24C257.779 185.447 257.222 185.516 256.735 185.516C256.248 185.516 255.691 185.447 255.204 185.24C254.716 185.032 254.229 184.755 253.881 184.409C253.533 184.063 253.185 183.647 252.976 183.163C252.767 182.678 252.698 182.194 252.698 181.709C252.698 180.671 253.115 179.702 253.881 179.01C254.647 178.317 255.691 177.902 256.735 177.902C257.779 177.902 258.824 178.317 259.589 179.01C260.355 179.702 260.773 180.74 260.773 181.709Z" fill="#F8C23A"/>
</svg>
