<svg width="25" height="23" viewBox="0 0 25 23" fill="none" xmlns="http://www.w3.org/2000/svg">
<path d="M22.5806 0H9.67742V3.95189H12.9032V5.53265H2.41936C1.04839 5.53265 0 6.56014 0 7.90378V16.5979C0 17.9416 1.04839 18.9691 2.41936 18.9691H3.22581V23L8.30645 18.9691H13.7097V13.4364H22.5806C23.9516 13.4364 25 12.4089 25 11.0653V2.37113C25 1.02749 23.9516 0 22.5806 0ZM8.70968 15.7285L8.30645 14.4639H5.80645L5.32258 15.7285H3.3871L6.04839 8.69416H7.98387L10.6452 15.7285H8.70968ZM20.9677 9.48454V11.0653C19.9194 11.0653 18.7903 10.7491 17.8226 10.2749C16.8548 10.7491 15.7258 10.9863 14.5968 11.0653L14.5161 9.48454C15.0806 9.48454 15.6452 9.4055 16.2097 9.24742C15.4839 8.53608 15 7.66667 14.7581 6.71821H16.4516C16.6936 7.42955 17.1774 7.98282 17.7419 8.45704C18.629 7.7457 19.1936 6.71821 19.2742 5.53265H14.4355V3.95189H16.8548V2.37113H18.4677V3.95189H21.129L21.2097 4.74227C21.2903 6.40206 20.6452 8.06186 19.4355 9.24742C20 9.4055 20.4839 9.48454 20.9677 9.48454Z" fill="#ACCCFF"/>
</svg>
