<svg width="25" height="25" viewBox="0 0 25 25" fill="none" xmlns="http://www.w3.org/2000/svg">
<g clip-path="url(#clip0_717_927)">
<path d="M19.5833 2.77783H7.91667C7.47464 2.77783 7.05072 2.94339 6.73816 3.23809C6.4256 3.53279 6.25 3.93249 6.25 4.34926V23.2064C6.25 23.6232 6.4256 24.0229 6.73816 24.3176C7.05072 24.6123 7.47464 24.7778 7.91667 24.7778H19.5833C20.0254 24.7778 20.4493 24.6123 20.7618 24.3176C21.0744 24.0229 21.25 23.6232 21.25 23.2064V4.34926C21.25 3.93249 21.0744 3.53279 20.7618 3.23809C20.4493 2.94339 20.0254 2.77783 19.5833 2.77783ZM7.91667 4.34926H19.5833V18.4921H7.91667V4.34926ZM7.91667 23.2064V20.0635H19.5833V23.2064H7.91667Z" fill="#827D7D"/>
<path d="M13.25 20.7778H14.25V22.7778H13.25V20.7778Z" fill="#827D7D"/>
</g>
<defs>
<clipPath id="clip0_717_927">
<rect width="25" height="25" fill="white"/>
</clipPath>
</defs>
</svg>
