<svg width="20" height="18" viewBox="0 0 20 18" fill="none" xmlns="http://www.w3.org/2000/svg">
<path d="M7.85628 1.81377V13.845C7.85628 13.9283 7.84079 14.0108 7.81056 14.0887L12.1423 16.1876V3.89052L7.85628 1.81377ZM6.4276 1.75839L1.42724 3.91267V16.243L6.46618 14.0721C6.44034 13.999 6.4273 13.9223 6.4276 13.845V1.75839ZM6.81906 0.0748473C6.92376 0.0233947 7.03993 -0.00225882 7.1573 0.000155998C7.27467 0.00257082 7.38961 0.0329795 7.49196 0.0886923L12.8752 2.69708L18.9956 0.0610024C19.1044 0.0141765 19.2235 -0.00557224 19.3422 0.00354998C19.4608 0.0126722 19.5752 0.0503764 19.675 0.113237C19.7748 0.176098 19.8568 0.262123 19.9135 0.363498C19.9703 0.464872 20 0.578382 20 0.693717V14.5387C20 14.6726 19.9599 14.8037 19.8846 14.916C19.8093 15.0283 19.702 15.117 19.5757 15.1714L13.1467 17.9404C13.0502 17.9819 12.9455 18.0022 12.84 17.9998C12.7346 17.9974 12.6309 17.9724 12.5366 17.9265L7.12337 15.3043L1.00436 17.9404C0.895593 17.9872 0.776479 18.007 0.657837 17.9978C0.539195 17.9887 0.424785 17.951 0.325002 17.8881C0.225218 17.8253 0.143222 17.7393 0.0864643 17.6379C0.0297063 17.5365 -1.51004e-05 17.423 5.75597e-09 17.3077V3.46271C-1.75361e-05 3.32877 0.0400606 3.1977 0.115376 3.0854C0.190691 2.97309 0.298008 2.88437 0.424316 2.82999L6.81906 0.0748473ZM13.571 3.91267V16.243L18.5713 14.0887V1.75978L13.571 3.91267Z" fill="white"/>
</svg>
