<svg width="20" height="20" viewBox="0 0 20 20" fill="none" xmlns="http://www.w3.org/2000/svg">
<path d="M7 5H14C14.2833 5 14.521 5.096 14.713 5.288C14.905 5.48 15.0007 5.71733 15 6C14.9993 6.28267 14.9033 6.52033 14.712 6.713C14.5207 6.90567 14.2833 7.00133 14 7H7C6.71667 7 6.47933 6.904 6.288 6.712C6.09667 6.52 6.00067 6.28267 6 6C5.99933 5.71733 6.09533 5.48 6.288 5.288C6.48067 5.096 6.718 5 7 5ZM7 8H14C14.2833 8 14.521 8.096 14.713 8.288C14.905 8.48 15.0007 8.71733 15 9C14.9993 9.28267 14.9033 9.52033 14.712 9.713C14.5207 9.90567 14.2833 10.0013 14 10H7C6.71667 10 6.47933 9.904 6.288 9.712C6.09667 9.52 6.00067 9.28267 6 9C5.99933 8.71733 6.09533 8.48 6.288 8.288C6.48067 8.096 6.718 8 7 8ZM3 20C2.16667 20 1.45833 19.7083 0.875 19.125C0.291667 18.5417 0 17.8333 0 17V15C0 14.7167 0.0960001 14.4793 0.288 14.288C0.48 14.0967 0.717333 14.0007 1 14H3V2C3 1.45 3.196 0.979333 3.588 0.588C3.98 0.196667 4.45067 0.000666667 5 0H16C16.55 0 17.021 0.196 17.413 0.588C17.805 0.98 18.0007 1.45067 18 2V8C18 8.28333 17.904 8.521 17.712 8.713C17.52 8.905 17.2827 9.00067 17 9C16.7173 8.99933 16.48 8.90333 16.288 8.712C16.096 8.52067 16 8.28333 16 8V2H5V14H8C8.28333 14 8.521 14.096 8.713 14.288C8.905 14.48 9.00067 14.7173 9 15C8.99933 15.2827 8.90333 15.5203 8.712 15.713C8.52067 15.9057 8.28333 16.0013 8 16H2V17C2 17.2833 2.096 17.521 2.288 17.713C2.48 17.905 2.71733 18.0007 3 18H8C8.28333 18 8.521 18.096 8.713 18.288C8.905 18.48 9.00067 18.7173 9 19C8.99933 19.2827 8.90333 19.5203 8.712 19.713C8.52067 19.9057 8.28333 20.0013 8 20H3ZM11 19V17.35C11 17.2167 11.025 17.0877 11.075 16.963C11.125 16.8383 11.2 16.7257 11.3 16.625L16.525 11.425C16.675 11.275 16.8417 11.1667 17.025 11.1C17.2083 11.0333 17.3917 11 17.575 11C17.775 11 17.9667 11.0377 18.15 11.113C18.3333 11.1883 18.5 11.3007 18.65 11.45L19.575 12.375C19.7083 12.525 19.8127 12.6917 19.888 12.875C19.9633 13.0583 20.0007 13.2417 20 13.425C19.9993 13.6083 19.966 13.796 19.9 13.988C19.834 14.18 19.7257 14.3507 19.575 14.5L14.375 19.7C14.275 19.8 14.1627 19.875 14.038 19.925C13.9133 19.975 13.784 20 13.65 20H12C11.7167 20 11.4793 19.9043 11.288 19.713C11.0967 19.5217 11.0007 19.284 11 19ZM12.5 18.5H13.45L16.475 15.45L16.025 14.975L15.55 14.525L12.5 17.55V18.5ZM16.025 14.975L15.55 14.525L16.475 15.45L16.025 14.975Z" fill="white"/>
</svg>
