<svg width="20" height="15" viewBox="0 0 20 15" fill="none" xmlns="http://www.w3.org/2000/svg">
<path d="M14.35 11.8385L17.9 8.28846C18.1 8.08846 18.3333 7.99246 18.6 8.00046C18.8667 8.00846 19.1 8.11279 19.3 8.31346C19.4833 8.51346 19.575 8.7468 19.575 9.01346C19.575 9.28013 19.4833 9.51346 19.3 9.71346L15.075 13.9635C14.875 14.1635 14.6417 14.2635 14.375 14.2635C14.1083 14.2635 13.875 14.1635 13.675 13.9635L11.525 11.8135C11.3417 11.6301 11.25 11.3968 11.25 11.1135C11.25 10.8301 11.3417 10.5968 11.525 10.4135C11.7083 10.2301 11.9417 10.1385 12.225 10.1385C12.5083 10.1385 12.7417 10.2301 12.925 10.4135L14.35 11.8385ZM14.35 3.83846L17.9 0.288462C18.1 0.0884617 18.3333 -0.00753846 18.6 0.000461538C18.8667 0.00846154 19.1 0.112795 19.3 0.313462C19.4833 0.513462 19.575 0.746795 19.575 1.01346C19.575 1.28013 19.4833 1.51346 19.3 1.71346L15.075 5.96346C14.875 6.16346 14.6417 6.26346 14.375 6.26346C14.1083 6.26346 13.875 6.16346 13.675 5.96346L11.525 3.81346C11.3417 3.63013 11.25 3.39679 11.25 3.11346C11.25 2.83013 11.3417 2.5968 11.525 2.41346C11.7083 2.23013 11.9417 2.13846 12.225 2.13846C12.5083 2.13846 12.7417 2.23013 12.925 2.41346L14.35 3.83846ZM1 12.6635C0.71667 12.6635 0.479337 12.5675 0.288004 12.3755C0.0966702 12.1835 0.000670115 11.9461 3.44827e-06 11.6635C-0.000663218 11.3808 0.0953369 11.1435 0.288004 10.9515C0.48067 10.7595 0.718003 10.6635 1 10.6635H8C8.28334 10.6635 8.521 10.7595 8.713 10.9515C8.905 11.1435 9.00067 11.3808 9 11.6635C8.99934 11.9461 8.90334 12.1838 8.712 12.3765C8.52067 12.5691 8.28334 12.6648 8 12.6635H1ZM1 4.66346C0.71667 4.66346 0.479337 4.56746 0.288004 4.37546C0.0966702 4.18346 0.000670115 3.94613 3.44827e-06 3.66346C-0.000663218 3.3808 0.0953369 3.14346 0.288004 2.95146C0.48067 2.75946 0.718003 2.66346 1 2.66346H8C8.28334 2.66346 8.521 2.75946 8.713 2.95146C8.905 3.14346 9.00067 3.3808 9 3.66346C8.99934 3.94613 8.90334 4.1838 8.712 4.37646C8.52067 4.56913 8.28334 4.66479 8 4.66346H1Z" fill="white"/>
</svg>
