<svg width="19" height="18" viewBox="0 0 19 18" fill="none" xmlns="http://www.w3.org/2000/svg">
<path d="M16 4.12473e-07C16.7956 4.12473e-07 17.5587 0.316071 18.1213 0.87868C18.6839 1.44129 19 2.20435 19 3C19 3.79565 18.6839 4.55871 18.1213 5.12132C17.5587 5.68393 16.7956 6 16 6H13C12.3795 6.00012 11.7743 5.80784 11.2676 5.44966C10.761 5.09147 10.3778 4.585 10.171 4H9C7.9 4 7 4.9 7 6V6.171C7.58484 6.37802 8.09115 6.7612 8.44925 7.26783C8.80734 7.77445 8.99962 8.3796 8.99962 9C8.99962 9.6204 8.80734 10.2256 8.44925 10.7322C8.09115 11.2388 7.58484 11.622 7 11.829V12C7 13.1 7.9 14 9 14H10.17C10.3769 13.4148 10.7602 12.9083 11.267 12.5501C11.7739 12.1919 12.3793 11.9997 13 12H16C16.7956 12 17.5587 12.3161 18.1213 12.8787C18.6839 13.4413 19 14.2044 19 15C19 15.7956 18.6839 16.5587 18.1213 17.1213C17.5587 17.6839 16.7956 18 16 18H13C12.3795 18.0001 11.7743 17.8078 11.2676 17.4497C10.761 17.0915 10.3778 16.585 10.171 16H9C6.79 16 5 14.21 5 12H3C2.20435 12 1.44129 11.6839 0.87868 11.1213C0.316071 10.5587 0 9.79565 0 9C0 8.20435 0.316071 7.44129 0.87868 6.87868C1.44129 6.31607 2.20435 6 3 6H5C5 4.93913 5.42143 3.92172 6.17157 3.17157C6.92172 2.42143 7.93913 2 9 2H10.17C10.3769 1.41484 10.7602 0.908257 11.267 0.550056C11.7739 0.191856 12.3793 -0.00032496 13 4.12473e-07H16ZM16 14H13C12.7348 14 12.4804 14.1054 12.2929 14.2929C12.1054 14.4804 12 14.7348 12 15C12 15.2652 12.1054 15.5196 12.2929 15.7071C12.4804 15.8946 12.7348 16 13 16H16C16.2652 16 16.5196 15.8946 16.7071 15.7071C16.8946 15.5196 17 15.2652 17 15C17 14.7348 16.8946 14.4804 16.7071 14.2929C16.5196 14.1054 16.2652 14 16 14ZM6 8H3C2.73478 8 2.48043 8.10536 2.29289 8.29289C2.10536 8.48043 2 8.73478 2 9C2 9.26522 2.10536 9.51957 2.29289 9.70711C2.48043 9.89464 2.73478 10 3 10H6C6.26522 10 6.51957 9.89464 6.70711 9.70711C6.89464 9.51957 7 9.26522 7 9C7 8.73478 6.89464 8.48043 6.70711 8.29289C6.51957 8.10536 6.26522 8 6 8ZM16 2H13C12.7348 2 12.4804 2.10536 12.2929 2.29289C12.1054 2.48043 12 2.73478 12 3C12 3.26522 12.1054 3.51957 12.2929 3.70711C12.4804 3.89464 12.7348 4 13 4H16C16.2652 4 16.5196 3.89464 16.7071 3.70711C16.8946 3.51957 17 3.26522 17 3C17 2.73478 16.8946 2.48043 16.7071 2.29289C16.5196 2.10536 16.2652 2 16 2Z" fill="white"/>
</svg>
