<svg width="43" height="31" viewBox="0 0 43 31" fill="none" xmlns="http://www.w3.org/2000/svg">
<mask id="mask0_572_2936" style="mask-type:luminance" maskUnits="userSpaceOnUse" x="0" y="0" width="43" height="28">
<path d="M42.1297 25.1791H24.3563C23.9324 25.1818 23.5236 25.3365 23.2043 25.6152L21.0649 27.4831L18.9255 25.6152C18.6061 25.3365 18.1973 25.1818 17.7735 25.1791H0V0H42.1297V25.1791Z" fill="white"/>
</mask>
<g mask="url(#mask0_572_2936)">
<g clip-path="url(#clip0_572_2936)">
<path d="M31.105 21.6535C28.2994 22.4257 25.3021 22.0522 22.7717 20.6153C20.2414 19.1783 18.3851 16.7954 17.611 13.9904C17.3775 13.0977 17.2601 12.1786 17.2616 11.2558C14.7379 12.2157 12.6582 14.0747 11.4223 16.4753C10.1864 18.8759 9.8815 21.6487 10.5663 24.2605C12.1231 30.0705 18.1549 33.5059 24.0524 31.9257C29.0199 30.5946 32.278 26.1267 32.2563 21.2769C31.8771 21.4242 31.4901 21.5506 31.0971 21.6556L31.105 21.6535Z" fill="white"/>
<path d="M17.2505 11.2275C17.2597 11.224 17.2701 11.2255 17.2782 11.2311C17.2863 11.2367 17.2912 11.2458 17.2912 11.2557C17.2897 12.1758 17.4067 13.0923 17.6395 13.9825C18.4116 16.7798 20.2626 19.1562 22.786 20.5892C25.3077 22.0213 28.2946 22.3936 31.0909 21.6256C31.4822 21.5209 31.8677 21.3955 32.2452 21.2488C32.2544 21.2453 32.2648 21.2465 32.2729 21.2521C32.2809 21.2576 32.2859 21.2668 32.2859 21.2766C32.3076 26.1399 29.0405 30.6198 24.0597 31.9544C18.1467 33.5388 12.0981 30.0943 10.537 24.2679L10.4756 24.022C9.87035 21.4756 10.1946 18.7934 11.3952 16.4614C12.6345 14.0543 14.7199 12.1901 17.2505 11.2275ZM31.1125 21.682L31.1044 21.6842L31.104 21.684C28.2932 22.4552 25.2913 22.0804 22.7566 20.641C20.2194 19.2001 18.358 16.8109 17.5818 13.9983L17.5816 13.9977L17.5392 13.8297C17.3368 13.0016 17.2334 12.1522 17.2313 11.2995C14.7329 12.2612 12.6742 14.1077 11.4483 16.4888C10.2158 18.8829 9.9119 21.6481 10.5949 24.2527C12.1474 30.0463 18.1624 33.4726 24.0443 31.8966C28.9838 30.573 32.2278 26.1397 32.2255 21.3199C31.8612 21.4598 31.4898 21.5806 31.1128 21.6817L31.1125 21.682Z" fill="white"/>
</g>
<path d="M6.0885 15.3651C5.70039 15.643 5.28457 15.7542 4.84102 15.6986C4.39747 15.643 4.03708 15.4207 3.75987 15.0316C3.48265 14.6426 3.37897 14.2257 3.44883 13.781C3.51869 13.3364 3.73325 12.9751 4.09253 12.6972L19.0207 1.23339C19.3257 1.01106 19.6517 0.844316 19.9988 0.733152C20.3458 0.621988 20.699 0.566406 21.0583 0.566406C21.4176 0.566406 21.7713 0.621988 22.1195 0.733152C22.4677 0.844316 22.7931 1.01106 23.0959 1.23339L27.7115 4.77675V3.85964C27.7115 3.16487 27.9544 2.57459 28.4401 2.0888C28.9258 1.60301 29.5146 1.35956 30.2065 1.35845C30.8984 1.35734 31.4878 1.60079 31.9746 2.0888C32.4614 2.57681 32.7037 3.16709 32.7015 3.85964V8.61191L38.0656 12.6972C38.426 12.9751 38.6339 13.3364 38.6894 13.781C38.7448 14.2257 38.6339 14.6426 38.3567 15.0316C38.0795 15.4207 37.7191 15.643 37.2756 15.6986C36.832 15.7542 36.4162 15.643 36.0281 15.3651L28.5432 9.63323L21.0583 3.90133L6.0885 15.3651Z" fill="white"/>
</g>
<path d="M17.7942 26.8101L17.8521 26.8126C17.9867 26.8248 18.1144 26.8799 18.2165 26.97L21.0946 29.5105L23.9727 26.97C24.0893 26.867 24.2397 26.8101 24.3953 26.8101H31.6566C32.0091 26.8101 32.295 27.0959 32.295 27.4484C32.295 27.8009 32.0091 28.0867 31.6566 28.0867H24.6366L21.5172 30.8404C21.2759 31.0535 20.9136 31.0535 20.6723 30.8404L17.5529 28.0867H10.5329C10.1803 28.0867 9.89453 27.8009 9.89453 27.4484C9.89453 27.0958 10.1803 26.8101 10.5329 26.8101H17.7942Z" fill="white"/>
<defs>
<clipPath id="clip0_572_2936">
<rect width="22.2169" height="22.2169" fill="white" transform="translate(9.95703 10.3726)"/>
</clipPath>
</defs>
</svg>
