<svg width="20" height="20" viewBox="0 0 20 20" fill="none" xmlns="http://www.w3.org/2000/svg">
<path fill-rule="evenodd" clip-rule="evenodd" d="M3.11828 1.94164C4.49462 1.84469 6.74409 1.73904 10 1.73904C13.2559 1.73904 15.5054 1.84469 16.8817 1.94164C17.5338 1.98772 18.0108 2.46161 18.0671 3.08593C18.1729 4.25587 18.2796 6.06621 18.2796 8.60738C18.2796 11.1486 18.1729 12.9593 18.0671 14.1288C18.0112 14.7536 17.5338 15.2275 16.8822 15.2736C15.5944 15.364 13.5445 15.4622 10.6211 15.4748C10.4176 15.4757 10.221 15.5495 10.0662 15.6831L7.12129 18.2243V16.2939C7.12138 16.0676 7.03419 15.8502 6.87822 15.6878C6.72226 15.5255 6.50981 15.431 6.28602 15.4244C5.22922 15.3957 4.17309 15.3455 3.11828 15.274C2.46667 15.2279 1.98968 14.754 1.93333 14.1293C1.82753 12.9598 1.72086 11.1494 1.72086 8.60781C1.72086 6.06621 1.82753 4.2563 1.93333 3.08636C1.98925 2.46205 2.46667 1.98772 3.11828 1.94164ZM10 0C6.7071 0 4.41849 0.106951 2.99828 0.206946C1.53333 0.309984 0.355269 1.42514 0.219785 2.92811C0.108387 4.15413 0 6.01708 0 8.60781C0 11.1985 0.108817 13.0611 0.219355 14.2871C0.355269 15.79 1.53333 16.9052 2.99828 17.0082C3.62581 17.0526 4.4228 17.0978 5.40086 17.1352V18.2917C5.40086 19.7551 7.09893 20.5302 8.19097 19.5877L10.9437 17.2121C13.7351 17.1943 15.7217 17.0982 17.0017 17.0078C18.4662 16.9052 19.6447 15.79 19.7802 14.2871C19.8912 13.0611 20 11.1981 20 8.60781C20 6.01751 19.8912 4.15413 19.7806 2.92811C19.6447 1.42514 18.4662 0.309984 17.0017 0.206946C15.5815 0.106951 13.2929 0 10 0ZM10 3.36939C9.70452 3.36939 9.4443 3.3933 9.21935 3.42939C8.44387 3.55416 8.08903 4.30673 8.15355 5.01409C8.23484 5.90969 8.36516 7.19745 8.50753 8.03654C8.58796 8.50956 8.91183 8.92867 9.43054 8.9904C9.58796 9.0091 9.77634 9.02127 10 9.02127C10.2237 9.02127 10.412 9.0091 10.569 8.99084C11.0882 8.92867 11.412 8.50956 11.4925 8.03654C11.6348 7.19745 11.7652 5.90969 11.8465 5.01409C11.911 4.30673 11.5561 3.55416 10.7806 3.42939C10.5224 3.38857 10.2614 3.36851 10 3.36939ZM8.27957 11.6298C8.27957 11.1686 8.46083 10.7263 8.78347 10.4001C9.10612 10.074 9.54371 9.89079 10 9.89079C10.4563 9.89079 10.8939 10.074 11.2165 10.4001C11.5392 10.7263 11.7204 11.1686 11.7204 11.6298C11.7204 12.0911 11.5392 12.5334 11.2165 12.8595C10.8939 13.1856 10.4563 13.3689 10 13.3689C9.54371 13.3689 9.10612 13.1856 8.78347 12.8595C8.46083 12.5334 8.27957 12.0911 8.27957 11.6298Z" fill="white"/>
</svg>
