<svg width="22" height="20" viewBox="0 0 22 20" fill="none" xmlns="http://www.w3.org/2000/svg">
<path d="M8.02083 20C7.31806 20 6.688 19.8182 6.13067 19.4545C5.57333 19.0909 5.14158 18.5909 4.83542 17.9545C4.59097 18.2727 4.28175 18.5191 3.90775 18.6936C3.53375 18.8682 3.14783 18.9552 2.75 18.9545C1.97083 18.9545 1.31786 18.6894 0.791083 18.1591C0.264306 17.6288 0.000611111 16.9848 0 16.2273C0 15.5758 0.213889 14.9888 0.641667 14.4664C1.06944 13.9439 1.61181 13.6445 2.26875 13.5682C2.05486 13.2652 1.89078 12.9433 1.7765 12.6027C1.66222 12.2621 1.60478 11.9021 1.60417 11.5227C1.60417 11.2652 1.63472 11.0076 1.69583 10.75C1.75694 10.4924 1.84861 10.2424 1.97083 10C2.09306 9.77273 2.27272 9.61758 2.50983 9.53455C2.74694 9.45152 2.97978 9.4703 3.20833 9.59091C3.43689 9.71152 3.59731 9.8897 3.68958 10.1255C3.78186 10.3612 3.76658 10.5921 3.64375 10.8182C3.58264 10.9394 3.53681 11.0606 3.50625 11.1818C3.47569 11.303 3.46042 11.4242 3.46042 11.5455C3.46042 12.3182 3.76231 12.8182 4.36608 13.0455C4.96986 13.2727 5.577 13.4394 6.1875 13.5455C6.30972 13.5758 6.42431 13.6212 6.53125 13.6818C6.63819 13.7424 6.72222 13.8258 6.78333 13.9318C6.84444 14.0379 6.87897 14.1479 6.88692 14.2618C6.89486 14.3758 6.87561 14.493 6.82917 14.6136C6.67639 15.0227 6.55417 15.3712 6.4625 15.6591C6.37083 15.947 6.325 16.2197 6.325 16.4773C6.325 16.9318 6.48908 17.3294 6.81725 17.67C7.14542 18.0106 7.54661 18.1812 8.02083 18.1818C8.50972 18.1818 8.92986 17.9964 9.28125 17.6255C9.63264 17.2545 9.92689 16.7924 10.164 16.2391C10.4011 15.6858 10.5921 15.0985 10.7369 14.4773C10.8818 13.8561 11 13.2955 11.0917 12.7955C11.1375 12.5379 11.2674 12.3373 11.4812 12.1936C11.6951 12.05 11.9243 12.0158 12.1687 12.0909C12.4285 12.1667 12.6234 12.3182 12.7536 12.5455C12.8837 12.7727 12.918 13.0152 12.8562 13.2727C12.7188 13.9697 12.5431 14.7121 12.3292 15.5C12.1153 16.2879 11.829 17.0152 11.4703 17.6818C11.1115 18.3485 10.6532 18.9015 10.0953 19.3409C9.5373 19.7803 8.84583 20 8.02083 20ZM14.0021 20C13.7271 20 13.5019 19.9127 13.3265 19.7382C13.1511 19.5636 13.0631 19.3479 13.0625 19.0909C13.0619 18.8339 13.1499 18.6182 13.3265 18.4436C13.5031 18.2691 13.7207 18.1818 13.9792 18.1818C14.4681 18.1818 14.8769 18.0115 15.2057 17.6709C15.5344 17.3303 15.6985 16.9248 15.6979 16.4545C15.6979 16.197 15.6484 15.913 15.5494 15.6027C15.4504 15.2924 15.3166 14.9173 15.1479 14.4773C15.1174 14.3712 15.1021 14.2691 15.1021 14.1709C15.1021 14.0727 15.1326 13.9779 15.1938 13.8864C15.2549 13.7948 15.3236 13.723 15.4 13.6709C15.4764 13.6188 15.5757 13.577 15.6979 13.5455C16.3243 13.4394 16.9583 13.2767 17.6 13.0573C18.2417 12.8379 18.5625 12.3264 18.5625 11.5227C18.5625 10.9167 18.3373 10.4773 17.8869 10.2045C17.4365 9.93182 16.9437 9.79545 16.4083 9.79545C15.873 9.79545 15.2543 9.88636 14.5521 10.0682C13.8499 10.25 13.0478 10.4848 12.1458 10.7727C11.8861 10.8485 11.634 10.8373 11.3896 10.7391C11.1451 10.6409 10.9847 10.4627 10.9083 10.2045C10.8319 9.94636 10.8701 9.70394 11.0229 9.47727C11.1757 9.25061 11.3819 9.09909 11.6417 9.02273C12.6042 8.7197 13.475 8.4697 14.2542 8.27273C15.0333 8.07576 15.759 7.97727 16.4312 7.97727C17.4854 7.97727 18.4097 8.28788 19.2042 8.90909C19.9986 9.5303 20.3958 10.4015 20.3958 11.5227C20.3958 11.9015 20.3387 12.2615 20.2244 12.6027C20.1101 12.9439 19.9457 13.2658 19.7313 13.5682C20.3882 13.6439 20.9306 13.9433 21.3583 14.4664C21.7861 14.9894 22 15.5764 22 16.2273C22 16.9848 21.7366 17.6288 21.2098 18.1591C20.6831 18.6894 20.0298 18.9545 19.25 18.9545C18.8528 18.9545 18.4669 18.8676 18.0923 18.6936C17.7176 18.5197 17.4084 18.2733 17.1646 17.9545C16.859 18.5758 16.4313 19.0682 15.8813 19.4318C15.3313 19.7955 14.7049 19.9848 14.0021 20ZM8.45625 12.8182C7.27986 11.7576 6.34028 10.7955 5.6375 9.93182C4.93472 9.06818 4.58333 8.13636 4.58333 7.13636C4.58333 6.15152 4.92311 5.32182 5.60267 4.64727C6.28222 3.97273 7.11883 3.63576 8.1125 3.63636C8.17361 3.63636 8.22708 3.6403 8.27292 3.64818C8.31875 3.65606 8.37222 3.6597 8.43333 3.65909C8.37222 3.50758 8.32639 3.35606 8.29583 3.20455C8.26528 3.05303 8.25 2.89394 8.25 2.72727C8.25 1.9697 8.51736 1.32576 9.05208 0.795455C9.58681 0.265152 10.2361 0 11 0C11.7639 0 12.4132 0.265152 12.9479 0.795455C13.4826 1.32576 13.75 1.9697 13.75 2.72727C13.75 2.89394 13.7347 3.04939 13.7042 3.19364C13.6736 3.33788 13.6278 3.48545 13.5667 3.63636H13.8875C14.2847 3.63636 14.6627 3.69697 15.0214 3.81818C15.3801 3.93939 15.7126 4.11364 16.0188 4.34091C16.2326 4.49242 16.3549 4.68939 16.3854 4.93182C16.416 5.17424 16.3549 5.40152 16.2021 5.61364C16.0493 5.82576 15.8507 5.94697 15.6062 5.97727C15.3618 6.00758 15.1326 5.94697 14.9187 5.79545C14.766 5.67424 14.6056 5.58727 14.4375 5.53455C14.2694 5.48182 14.0861 5.45515 13.8875 5.45455C13.3986 5.45455 13.0051 5.59091 12.7068 5.86364C12.4086 6.13636 12.0306 6.53788 11.5729 7.06818C11.4965 7.15909 11.4125 7.22727 11.3208 7.27273C11.2292 7.31818 11.1222 7.34091 11 7.34091C10.8778 7.34091 10.7669 7.31818 10.6673 7.27273C10.5676 7.22727 10.4799 7.15909 10.4042 7.06818C9.93056 6.52273 9.55258 6.11758 9.27025 5.85273C8.98792 5.58788 8.602 5.45515 8.1125 5.45455C7.623 5.45394 7.21814 5.61303 6.89792 5.93182C6.57769 6.25061 6.41728 6.65212 6.41667 7.13636C6.41667 7.77273 6.71825 8.43576 7.32142 9.12545C7.92458 9.81515 8.73828 10.6218 9.7625 11.5455C9.97639 11.7273 10.1026 11.9509 10.1411 12.2164C10.1796 12.4818 10.1069 12.7052 9.92292 12.8864C9.72431 13.0833 9.48383 13.1706 9.2015 13.1482C8.91917 13.1258 8.67075 13.0158 8.45625 12.8182ZM2.75 17.1364C3.00972 17.1364 3.22758 17.0494 3.40358 16.8755C3.57958 16.7015 3.66728 16.4855 3.66667 16.2273C3.66606 15.9691 3.57806 15.7533 3.40267 15.58C3.22728 15.4067 3.00972 15.3194 2.75 15.3182C2.49028 15.317 2.27272 15.4042 2.09733 15.58C1.92194 15.7558 1.83394 15.9715 1.83333 16.2273C1.83272 16.483 1.92072 16.6991 2.09733 16.8755C2.27394 17.0518 2.4915 17.1388 2.75 17.1364ZM11.6536 3.37545C11.829 3.20091 11.9167 2.98485 11.9167 2.72727C11.9167 2.4697 11.8287 2.25394 11.6527 2.08C11.4767 1.90606 11.2591 1.81879 11 1.81818C10.7409 1.81758 10.5233 1.90485 10.3473 2.08C10.1713 2.25515 10.0833 2.47091 10.0833 2.72727C10.0833 2.98364 10.1713 3.1997 10.3473 3.37545C10.5233 3.55121 10.7409 3.63818 11 3.63636C11.2591 3.63455 11.477 3.54818 11.6536 3.37545ZM19.9146 16.8745C20.0826 16.7006 20.1667 16.4852 20.1667 16.2282C20.1667 15.9712 20.0787 15.7515 19.9027 15.5691C19.7267 15.3867 19.5091 15.2958 19.25 15.2964C18.9909 15.297 18.7733 15.3842 18.5973 15.5582C18.4213 15.7321 18.3333 15.9479 18.3333 16.2055C18.3333 16.463 18.425 16.6827 18.6083 16.8645C18.7917 17.0464 19.0132 17.1373 19.2729 17.1373C19.5326 17.1373 19.7465 17.0503 19.9146 16.8764" fill="white"/>
</svg>
