<svg width="20" height="25" viewBox="0 0 20 25" fill="none" xmlns="http://www.w3.org/2000/svg">
<path d="M0.507496 10.7582C0.182547 10.4332 0 9.9924 0 9.53278C0 9.07316 0.182547 8.63236 0.507496 8.30731L8.3075 0.507314C8.63255 0.182365 9.07335 -0.000181595 9.53296 -0.000181615C9.99258 -0.000181635 10.4334 0.182365 10.7584 0.507314L18.5584 8.30731C18.8742 8.63422 19.0489 9.07207 19.0449 9.52654C19.041 9.98102 18.8587 10.4158 18.5373 10.7371C18.2159 11.0585 17.7812 11.2408 17.3267 11.2447C16.8723 11.2487 16.4344 11.074 16.1075 10.7582L11.2663 6.06611L11.2663 22.5328C11.2663 22.9925 11.0837 23.4334 10.7586 23.7584C10.4336 24.0835 9.99267 24.2661 9.53296 24.2661C9.07326 24.2661 8.63238 24.0835 8.30731 23.7584C7.98225 23.4334 7.79963 22.9925 7.79963 22.5328L7.79963 6.06611L2.95843 10.7582C2.63338 11.0832 2.19258 11.2657 1.73296 11.2657C1.27335 11.2657 0.832544 11.0832 0.507496 10.7582Z" fill="white"/>
</svg>
